<svg xmlns="http://www.w3.org/2000/svg" width="51" height="38" viewBox="0 0 51 38">
    <path fill="#DDD" fill-rule="evenodd" d="M25.5.559c-3.913 0-7.836 1.458-10.82 4.4-2.315 2.284-3.695 5.141-4.214 8.104C4.54 14.012 0 19.046 0 25.147c0 6.777 5.595 12.294 12.467 12.294h27.766C46.178 37.441 51 32.686 51 26.824c0-5.708-4.579-10.323-10.306-10.566.165-4.066-1.25-8.2-4.392-11.298C33.32 2.019 29.412.559 25.5.559zm0 2.235c3.339 0 6.658 1.24 9.208 3.755a12.726 12.726 0 0 1 3.72 10.635c-.042.32.06.641.276.882.218.24.53.378.856.375h.673c4.729 0 8.5 3.72 8.5 8.383 0 4.663-3.771 8.382-8.5 8.382H12.467c-5.647 0-10.2-4.49-10.2-10.059 0-5.258 4.062-9.558 9.261-10.024a1.126 1.126 0 0 0 1.027-.978 12.695 12.695 0 0 1 3.719-7.596c2.549-2.514 5.887-3.755 9.226-3.755zm0 10.618c-.626 0-1.133.5-1.133 1.117v13.133l-4.339-3.895c-.44-.396-1.211-.365-1.611.07-.4.436-.378 1.19.088 1.59l6.234 5.588c.161.146.458.274.761.28.3 0 .512-.056.761-.28l6.234-5.589c.443-.392.525-1.158.088-1.589-.42-.416-1.171-.466-1.611-.07l-4.339 3.895V14.529c0-.617-.507-1.117-1.133-1.117z"/>
</svg>
