<svg xmlns="http://www.w3.org/2000/svg" width="49" height="40" viewBox="0 0 49 40">
    <path fill="#DDD" fill-rule="evenodd" d="M45.6.25H3.4C1.55.25 0 1.75 0 3.65V36.4c0 1.85 1.5 3.4 3.4 3.4h42.2c1.85 0 3.4-1.5 3.4-3.4V3.6C49 1.75 47.45.25 45.6.25zM3.4 2h42.2c.9 0 1.65.75 1.65 1.65V9.7H1.75V3.6c0-.9.75-1.6 1.65-1.6zm42.2 36H3.4c-.9 0-1.65-.75-1.65-1.65v-24.9h45.5V36.4c0 .9-.75 1.6-1.65 1.6zM5 6.45a.923.923 0 0 1-.25-.6c0-.2.1-.45.25-.6.35-.3.9-.3 1.25 0 .15.15.25.4.25.6 0 .2-.1.45-.25.6-.15.15-.4.25-.6.25-.2 0-.5-.1-.65-.25zm4.7 0a.923.923 0 0 1-.25-.6c0-.2.1-.45.25-.6.3-.3.9-.3 1.25 0 .15.15.25.4.25.6 0 .2-.1.45-.25.6-.15.15-.4.25-.6.25-.2 0-.5-.1-.65-.25zm4.75 0a.923.923 0 0 1-.25-.6c0-.2.1-.45.25-.6.3-.3.9-.3 1.25 0 .15.15.25.4.25.6 0 .2-.1.45-.25.6-.15.15-.4.25-.6.25-.2 0-.5-.1-.65-.25zM40 24.15c.2.15.3.4.3.65s-.1.5-.3.65l-7.4 6.35c-.2.15-.4.2-.6.2-.25 0-.5-.1-.65-.3-.3-.35-.25-.9.1-1.25l6.65-5.65-6.65-5.6c-.35-.3-.4-.85-.1-1.25.3-.35.85-.4 1.25-.1l7.4 6.3zm-22.45 6.3c.35.3.4.85.1 1.25-.15.2-.4.3-.65.3-.2 0-.4-.05-.55-.2L9 25.5c-.2-.15-.3-.4-.3-.65s.1-.5.3-.65l7.4-6.3c.35-.3.9-.25 1.25.1s.25.9-.1 1.25l-6.65 5.6 6.65 5.6zm10.9-13.15l-6.3 15.75c-.15.35-.45.55-.8.55-.1 0-.2 0-.3-.05-.45-.2-.65-.7-.5-1.15l6.3-15.75c.2-.45.7-.65 1.15-.5.4.2.6.7.45 1.15z"/>
</svg>
