<svg xmlns="http://www.w3.org/2000/svg" width="48" height="48" viewBox="0 0 48 48">
    <g fill="#FFF" fill-rule="evenodd">
        <path d="M42.8 36.9c-.2 0-.3-.1-.3-.3 0-.1 0-.1.1-.2 1-1.5 1.7-3.3 1.7-4.9 0-3-2.5-5.5-5.5-5.5s-5.5 2.5-5.5 5.5c0 1.5.6 3.4 1.7 4.9 0 0 .1.1.1.2 0 .2-.1.3-.3.3-2.9 0-5.2 2.3-5.2 5.2V47c0 .6.4 1 1 1H47c.6 0 1-.4 1-1v-4.9c0-2.8-2.3-5.2-5.2-5.2zM46 46H31.4v-3.9c0-1.8 1.4-3.2 3.2-3.2 1.3 0 2.3-1 2.3-2.3 0-.5-.1-.9-.4-1.3-.8-1.1-1.3-2.6-1.3-3.8 0-1.9 1.6-3.5 3.5-3.5s3.5 1.6 3.5 3.5c0 1.1-.5 2.6-1.3 3.8-.3.4-.4.9-.4 1.3 0 1.3 1 2.3 2.3 2.3 1.8 0 3.2 1.4 3.2 3.2V46zM13.4 36.9c-.2 0-.3-.1-.3-.3 0-.1 0-.1.1-.2 1-1.5 1.7-3.3 1.7-4.9 0-3-2.5-5.5-5.5-5.5s-5.5 2.5-5.5 5.5c0 1.5.6 3.4 1.7 4.9 0 0 .1.1.1.2 0 .2-.1.3-.3.3-2.9 0-5.2 2.3-5.2 5.2V47c0 .6.4 1 1 1h16.6c.6 0 1-.4 1-1v-4.9c-.2-2.8-2.5-5.2-5.4-5.2zm3.2 9.1H2v-3.9c0-1.8 1.4-3.2 3.2-3.2 1.3 0 2.3-1 2.3-2.3 0-.5-.1-.9-.4-1.3-.8-1.1-1.3-2.6-1.3-3.8 0-1.9 1.6-3.5 3.5-3.5s3.5 1.6 3.5 3.5c0 1.1-.5 2.6-1.3 3.8-.3.4-.4.9-.4 1.3 0 1.3 1 2.3 2.3 2.3 1.8 0 3.2 1.4 3.2 3.2V46zM15.7 22h16.6c.6 0 1-.4 1-1v-4.9c0-2.9-2.3-5.2-5.2-5.2-.2 0-.3-.1-.3-.3 0-.1 0-.1.1-.2 1-1.5 1.7-3.3 1.7-4.9C29.5 2.5 27 0 24 0c-3 0-5.5 2.5-5.5 5.5 0 1.5.6 3.4 1.7 4.9 0 0 .1.1.1.2 0 .2-.1.3-.3.3-2.9 0-5.2 2.3-5.2 5.2V21c-.1.5.3 1 .9 1zm1-5.9c0-1.8 1.4-3.2 3.2-3.2 1.3 0 2.3-1 2.3-2.3 0-.5-.1-.9-.4-1.3-.8-1.1-1.3-2.6-1.3-3.8C20.5 3.6 22.1 2 24 2s3.5 1.6 3.5 3.5c0 1.1-.5 2.6-1.3 3.8-.3.4-.4.9-.4 1.3 0 1.3 1 2.3 2.3 2.3 1.8 0 3.2 1.4 3.2 3.2V20H16.7v-3.9zM31.8 32.8c0-.6-.4-1-1-1H25V25c0-.6-.4-1-1-1s-1 .4-1 1v6.9h-5.8c-.6 0-1 .4-1 1s.4 1 1 1h13.6c.5-.1 1-.5 1-1.1z"/>
    </g>
</svg>
