<svg xmlns="http://www.w3.org/2000/svg" width="57" height="55" viewBox="0 0 57 55">
    <g fill="none" fill-rule="evenodd">
        <path fill="#FFFEFE" d="M3.368 33.97a22.574 22.574 0 0 1-.404-4.18c0-12.062 9.491-21.953 21.485-22.83l-4.897 4.833a1.136 1.136 0 0 0 0 1.62 1.174 1.174 0 0 0 1.64 0l6.76-6.673c.235-.15.402-.374.48-.646l.012-.049c.017-.07.049-.135.054-.208.002-.055-.019-.103-.026-.158-.002-.048.019-.092.012-.138-.01-.041-.04-.073-.054-.117a.553.553 0 0 0-.037-.084c-.102-.269-.274-.507-.54-.638L18.566.12a1.172 1.172 0 0 0-1.555.513 1.141 1.141 0 0 0 .52 1.538l5.357 2.645C10.362 6.417.642 16.993.642 29.789c0 1.5.147 3.002.444 4.597a1.156 1.156 0 0 0 1.353.92 1.148 1.148 0 0 0 .929-1.337zm52.825 3.254a1.172 1.172 0 0 0-1.593-.397l-5.007 2.952a24.776 24.776 0 0 0 2.117-9.99c0-10.642-6.84-20.185-17.022-23.741a1.169 1.169 0 0 0-1.483.696 1.145 1.145 0 0 0 .708 1.462C43.168 11.442 49.39 20.114 49.39 29.79a22.52 22.52 0 0 1-2.187 9.655l-1.316-6.442a1.16 1.16 0 0 0-1.367-.898 1.146 1.146 0 0 0-.91 1.35l1.915 9.37c.01.26.1.505.276.704.003.005.007.007.01.01.07.077.132.157.225.215.03.018.067.011.097.027.04.023.063.062.105.08.148.067.31.099.469.099.206 0 .41-.055.596-.16l8.487-5.003c.55-.326.733-1.03.404-1.572zm-14.95 9.975a23.382 23.382 0 0 1-15.067 5.507c-7.746 0-14.835-3.779-19.134-10.003l7.224 1.943a1.146 1.146 0 1 0 .61-2.211l-9.9-2.66a1.17 1.17 0 0 0-.675-.07c-.033.005-.06.019-.093.026-.072.02-.149.025-.218.06-.037.018-.06.052-.093.073-.033.018-.07.02-.1.043-.044.032-.065.08-.102.117a1.133 1.133 0 0 0-.098.112c-.15.188-.262.406-.273.651l-.363 9.586a1.151 1.151 0 0 0 1.117 1.187h.044c.622 0 1.135-.486 1.16-1.102l.226-5.91c4.76 6.517 12.375 10.45 20.666 10.45A25.71 25.71 0 0 0 42.75 48.94a1.135 1.135 0 0 0 .128-1.616 1.17 1.17 0 0 0-1.634-.126z"/>
        <path fill="#FFF" d="M33.042 18a1.313 1.313 0 0 0-1.292 1.33v15.75a1.313 1.313 0 1 0 2.625 0V19.33A1.313 1.313 0 0 0 33.042 18zm-10.5 5.25a1.313 1.313 0 0 0-1.292 1.33v10.5a1.313 1.313 0 1 0 2.625 0v-10.5a1.313 1.313 0 0 0-1.333-1.33zm5.25 2.625a1.313 1.313 0 0 0-1.292 1.33v7.876a1.313 1.313 0 1 0 2.625 0v-7.875a1.313 1.313 0 0 0-1.333-1.33zm-10.5 2.625A1.313 1.313 0 0 0 16 29.83v5.25a1.313 1.313 0 1 0 2.625 0v-5.25a1.313 1.313 0 0 0-1.333-1.33z"/>
    </g>
</svg>
