<?xml version="1.0" encoding="utf-8"?>
<!-- Generator: Adobe Illustrator 21.1.0, SVG Export Plug-In . SVG Version: 6.00 Build 0)  -->
<svg version="1.1" id="Layer_1" xmlns="http://www.w3.org/2000/svg" xmlns:xlink="http://www.w3.org/1999/xlink" x="0px" y="0px"
	 viewBox="0 0 225.1 33.2" style="enable-background:new 0 0 225.1 33.2;" xml:space="preserve">
<style type="text/css">
	.st0{fill:#FFFFFF;}
	.st1{fill:#F04F50;}
</style>
<g>
	<g>
		<path class="st0" d="M112.4,21.3H91.1c0.2,2.4,1.3,4.3,3,5.9c1.8,1.5,3.8,2.3,6.3,2.3c3.7,0,6.4-1.8,8-5.2h3.3
			c-0.9,2.5-2.4,4.6-4.5,6.1s-4.5,2.3-7,2.3c-3.2,0-6.1-1.1-8.6-3.5s-3.8-5.3-3.8-8.7c-0.1-3.5,1.2-6.6,3.8-9.2
			c2.6-2.6,5.7-3.7,9.2-3.5c3.2,0.2,5.9,1.5,8.2,3.9c2.2,2.4,3.3,5,3.3,8L112.4,21.3L112.4,21.3z M109.3,18.4
			c-0.5-2.2-1.5-4-3.1-5.4s-3.6-2.1-5.8-2.1c-2.3,0-4.3,0.7-6,2c-1.7,1.4-2.8,3.2-3.2,5.4L109.3,18.4L109.3,18.4z"/>
		<path class="st0" d="M130.6,32.1h-4l-6.2-9.5l-6.2,9.5h-3.7l8-12.1l-8.1-11.6h3.6l6.4,9l6.2-9h3.9L122.3,20L130.6,32.1z"/>
		<path class="st0" d="M153.2,20.2v0.2v11.7H150v-3.7c-2.6,2.9-5.7,4.3-9.4,4.2c-3.3-0.1-6-1.4-8.3-3.8s-3.4-5.3-3.4-8.6
			c0-3.5,1.2-6.4,3.7-8.9s5.4-3.7,8.9-3.5c3.3,0.1,6.2,1.4,8.5,3.8C152.2,14,153.3,16.9,153.2,20.2z M150.1,19.9
			c0-2.5-1-4.6-2.7-6.4s-3.8-2.7-6.2-2.7c-2.5,0-4.7,0.9-6.5,2.7S132,17.4,132,20c0,2.5,0.8,4.7,2.5,6.5c1.7,1.9,3.8,2.9,6.2,3
			c2.6,0.1,4.8-0.8,6.7-2.7C149.3,24.8,150.1,22.6,150.1,19.9z"/>
		<path class="st0" d="M159.7,32.1h-3.2V0h3.2V32.1z"/>
		<path class="st0" d="M166.4,32.1h-3.2V0h3.2V32.1z"/>
		<path class="st0" d="M173.2,5.5H170V0h3.2V5.5z M173.2,32.1H170V8.4h3.2V32.1z"/>
		<path class="st0" d="M201,20.2c0,3.4-1.2,6.3-3.7,8.9c-2.5,2.5-5.4,3.7-8.9,3.5c-3.3-0.1-6.1-1.3-8.4-3.7
			c-2.3-2.4-3.4-5.3-3.4-8.6c0-3.5,1.2-6.4,3.7-8.9s5.4-3.7,8.8-3.5c3.3,0.1,6.1,1.4,8.4,3.8C199.8,14,201,16.9,201,20.2z
			 M197.8,19.9c-0.1-2.5-1-4.7-2.7-6.4c-1.7-1.8-3.8-2.7-6.2-2.7c-2.5,0-4.7,0.8-6.5,2.7c-1.8,1.8-2.7,4-2.7,6.5s0.8,4.7,2.5,6.6
			s3.8,2.8,6.2,2.9c2.6,0.2,4.8-0.8,6.7-2.7C197,24.9,197.9,22.6,197.8,19.9z"/>
		<path class="st0" d="M225.1,32.1h-3.2V18.2c0-2-0.7-3.7-2.2-5.2c-1.5-1.4-3.2-2.2-5.1-2.2s-3.7,0.7-5.2,2.2
			c-1.5,1.4-2.2,3.2-2.2,5.2v13.9H204V18.5c0-3.1,1-5.6,3-7.7c2-2,4.5-3,7.5-3s5.5,1,7.5,3s3,4.6,3,7.7L225.1,32.1L225.1,32.1z"/>
	</g>
</g>
<g>
	<path class="st1" d="M120.4,22.6l-6.2,9.5h-3.7l8-12.1l2-2.6l6.2-9h3.9l-8.2,11.7L120.4,22.6z"/>
</g>
<g>
	<path class="st1" d="M16.5,4.2C7.3,4.1-0.2,10.6-0.2,18.6S7.3,33,16.5,33h0.8c0.7,0,1.4-0.1,2.1-0.1v-5.8c-0.7,0.1-1.4,0.2-2.1,0.2
		h-0.8c-4.4,0-8.1-2.4-9.5-5.8h10.7v-5.8H7c1.4-3.4,5-5.9,9.5-5.9h0.8c0.7,0,1.4,0.1,2.1,0.2V4.3c-0.7-0.1-1.4-0.1-2.1-0.1H16.5z"/>
	<path class="st1" d="M35.6,14.5l-6.1-5.7c-2.4-2.3-5.6-3.8-9.1-4.3v5.8c1.6,0.5,3.1,1.3,4.3,2.4l6.4,6l-6.4,5.9
		c-1.2,1.1-2.7,1.9-4.3,2.4v5.9c3.5-0.6,6.7-2.1,9.2-4.3l6.2-5.7l6.2,5.7c2.3,2.2,5.4,3.7,8.8,4.3V27c-1.6-0.5-3-1.2-4.1-2.3l-6.5-6
		l6.4-6c1.2-1.3,2.6-2.1,4.2-2.5V4.4c-3.4,0.6-6.6,2.1-9,4.4L35.6,14.5z"/>
	<path class="st1" d="M71.8,18.6c0-7.9-7.6-14.5-16.8-14.5h-0.8c-0.8,0-1.5,0.1-2.3,0.2V10c0.7-0.1,1.5-0.2,2.2-0.2h0.8
		c5.7,0,10.2,3.9,10.2,8.7s-4.6,8.9-10.1,8.9h-0.8c-0.8,0-1.6-0.1-2.3-0.2V33c0.8,0.1,1.7,0.2,2.5,0.2h0.8c4.1,0,7.8-1.3,10.7-3.4
		v3.3h5.8v-13C71.8,19.6,71.8,19.1,71.8,18.6z"/>
</g>
</svg>
