<?xml version="1.0" encoding="utf-8"?>
<!-- Generator: Adobe Illustrator 21.1.0, SVG Export Plug-In . SVG Version: 6.00 Build 0)  -->
<svg version="1.1" id="Layer_1" xmlns="http://www.w3.org/2000/svg" xmlns:xlink="http://www.w3.org/1999/xlink" x="0px" y="0px"
	 viewBox="0 0 71.9 28.9" style="enable-background:new 0 0 71.9 28.9;" xml:space="preserve">
<style type="text/css">
	.st0{fill:#F04F50;}
</style>
<g>
	<path class="st0" d="M16.7,0.1C7.5,0,0,6.5,0,14.5s7.5,14.4,16.7,14.4h0.8c0.7,0,1.4-0.1,2.1-0.1V23c-0.7,0.1-1.4,0.2-2.1,0.2h-0.8
		c-4.4,0-8.1-2.4-9.5-5.8h10.7v-5.8H7.2c1.4-3.4,5-5.9,9.5-5.9h0.8c0.7,0,1.4,0.1,2.1,0.2V0.2c-0.7-0.1-1.4-0.1-2.1-0.1H16.7z"/>
	<path class="st0" d="M35.8,10.4l-6.1-5.7c-2.4-2.3-5.6-3.8-9.1-4.3v5.8c1.6,0.5,3.1,1.3,4.3,2.4l6.4,6l-6.4,5.9
		c-1.2,1.1-2.7,1.9-4.3,2.4v5.9c3.5-0.6,6.7-2.1,9.2-4.3l6.2-5.7l6.2,5.7c2.3,2.2,5.4,3.7,8.8,4.3v-5.9c-1.6-0.5-3-1.2-4.1-2.3
		l-6.5-6l6.4-6C48,7.3,49.4,6.5,51,6.1V0.3c-3.4,0.6-6.6,2.1-9,4.4L35.8,10.4z"/>
	<path class="st0" d="M71.9,14.5C71.9,6.6,64.3,0,55.1,0h-0.8c-0.8,0-1.5,0.1-2.3,0.2v5.7c0.7-0.1,1.5-0.2,2.2-0.2H55
		c5.7,0,10.2,3.9,10.2,8.7c0,4.8-4.6,8.9-10.1,8.9h-0.8c-0.8,0-1.6-0.1-2.3-0.2v5.8c0.8,0.1,1.7,0.2,2.5,0.2h0.8
		c4.1,0,7.8-1.3,10.7-3.4v3.3h5.8V16C71.9,15.5,71.9,15,71.9,14.5z"/>
</g>
</svg>
