<svg xmlns="http://www.w3.org/2000/svg" width="50" height="51" viewBox="0 0 50 51">
    <g fill="#FFF" fill-rule="evenodd">
        <path d="M29.167 7.535h4.655l-4.655-4.67v4.67zm6.666 1.672h-7.5a.835.835 0 0 1-.833-.836V.846c0-.338.203-.643.514-.772a.83.83 0 0 1 .909.181l7.5 7.525a.838.838 0 0 1-.59 1.427zM28.071 29.76l2.682 2.004 15.594-20.74-2.854-2.292L28.07 29.76zm2.848 4.007a.827.827 0 0 1-.498-.166l-4.01-2.996a.838.838 0 0 1-.173-1.166l16.427-22.4a.836.836 0 0 1 .562-.334.844.844 0 0 1 .63.177l4.163 3.344a.838.838 0 0 1 .145 1.156l-16.58 22.052a.83.83 0 0 1-.666.333z"/>
        <path d="M45.275 8.014l1.203.953 1.417-1.942a.192.192 0 0 0-.04-.268l-.877-.66a.192.192 0 0 0-.267.037l-1.436 1.88zm1.365 2.983a.83.83 0 0 1-.516-.18l-2.526-2.002a.837.837 0 0 1-.145-1.165l1.935-2.533a1.859 1.859 0 0 1 2.59-.358l.878.66c.81.61.982 1.775.384 2.594l-1.927 2.642a.837.837 0 0 1-.673.342z"/>
        <path d="M34.19 15.06a.837.837 0 0 1-.667-1.336l4.979-6.69a.83.83 0 0 1 .87-.31l3.33.836a.836.836 0 0 1-.404 1.622l-2.793-.701-4.646 6.242a.83.83 0 0 1-.668.336M26.239 34.646l.373.278 2.882-2.015-2.155-1.61-1.1 3.347zm.357 2.145a.826.826 0 0 1-.497-.165l-1.337-.999a.837.837 0 0 1-.294-.932l1.65-5.022a.83.83 0 0 1 1.29-.409l4.009 2.997a.836.836 0 0 1-.022 1.356l-4.323 3.024c-.143.1-.31.15-.476.15z"/>
        <path d="M25 37.633a.839.839 0 0 1-.684-1.313l.927-1.34a.83.83 0 0 1 1.16-.211.839.839 0 0 1 .21 1.163l-.928 1.341a.833.833 0 0 1-.686.36M28.098 29.733l2.595 1.766 7.035-9.241-2.672-1.898-6.958 9.373zm2.778 3.737a.828.828 0 0 1-.467-.144l-3.968-2.7a.836.836 0 0 1-.2-1.19l7.965-10.729a.83.83 0 0 1 1.15-.183l4.04 2.87a.836.836 0 0 1 .18 1.19L31.54 33.141a.834.834 0 0 1-.663.328z"/>
        <path d="M32.853 31.14a.82.82 0 0 1-.507-.173l-3.954-3.052a.839.839 0 0 1-.152-1.173.832.832 0 0 1 1.168-.152l3.953 3.053a.837.837 0 0 1-.508 1.498M34.9 28.403a.823.823 0 0 1-.496-.165l-4.01-2.998a.837.837 0 0 1-.17-1.17.83.83 0 0 1 1.165-.17l4.01 2.997a.837.837 0 0 1-.498 1.506M36.908 25.635a.827.827 0 0 1-.486-.157l-4.026-2.911a.838.838 0 0 1-.19-1.167.83.83 0 0 1 1.164-.19l4.026 2.91a.837.837 0 0 1-.488 1.515M17.5 17.567h-10a.835.835 0 0 1 0-1.672h10a.835.835 0 0 1 0 1.672M17.5 27.6h-10a.835.835 0 0 1 0-1.672h10a.835.835 0 0 1 0 1.672M17.5 37.633h-10a.835.835 0 0 1 0-1.672h10a.835.835 0 0 1 0 1.672M24.167 18.403a.831.831 0 0 1-.59-.244l-1.666-1.673a.837.837 0 0 1 0-1.182.83.83 0 0 1 1.178 0l1.022 1.025 3.582-4.313a.83.83 0 0 1 1.174-.107.837.837 0 0 1 .106 1.177l-4.166 5.016a.833.833 0 0 1-.603.3l-.037.001M24.167 28.436a.831.831 0 0 1-.59-.245l-1.666-1.672a.837.837 0 0 1 0-1.182.83.83 0 0 1 1.178 0l1.022 1.025 3.582-4.313a.83.83 0 0 1 1.174-.107.837.837 0 0 1 .106 1.177l-4.166 5.016a.833.833 0 0 1-.603.3l-.037.001"/>
        <path d="M30.92 32.931h.007-.008zM1.666 48.501H35v-19.61l-3.416 4.543a.813.813 0 0 1-.188.183l-4.323 3.024a.831.831 0 0 1-.975-.015l-1.336-.999a.839.839 0 0 1-.294-.932l1.65-5.022a.852.852 0 0 1 .12-.234L35 17.49V8.717l-7.012-7.035H1.666v46.82zm34.166 1.673h-35A.835.835 0 0 1 0 49.338V.846C0 .385.373.01.833.01h27.5c.221 0 .433.088.59.245l7.5 7.525c.156.156.244.37.244.59v9.396a.841.841 0 0 1-.162.495l-8.846 12.061-1.42 4.324.373.279 3.721-2.604 4.835-6.429a.83.83 0 0 1 .93-.29c.34.115.569.434.569.793v22.943a.835.835 0 0 1-.834.836z"/>
    </g>
</svg>
